<svg xmlns="http://www.w3.org/2000/svg" fill="none" viewBox="0 0 36 36">
  <g id="layer1" style="display: inline">
    <path
      id="path1359"
      style="
        color: #000000;
        fill: #000000;
        fill-rule: evenodd;
        stroke-width: 0.329661;
        stroke-dashoffset: 16.512;
      "
      d="m 18,11 c -1.223809,0 -2.371722,0.324868 -3.373047,0.880859 l 0.683594,0.935547 C 16.115322,12.397894 17.027551,12.158203 18,12.158203 c 1.784177,0 3.376681,0.795579 4.447266,2.050781 l 0.912109,-0.701172 C 22.07409,11.977679 20.148973,11 18,11 Z m -5.048828,2.169922 C 11.747153,14.427783 11,16.127781 11,18.001953 c 0,1.499448 0.476928,2.887055 1.283203,4.027344 l 0.910156,-0.699219 c -0.653744,-0.943833 -1.037109,-2.089566 -1.037109,-3.328125 0,-1.507271 0.571449,-2.875102 1.503906,-3.910156 z m 11.646484,2.507812 -1.050781,0.488282 c 0.190807,0.577222 0.296875,1.193657 0.296875,1.835937 0,1.784797 -0.79733,3.376448 -2.052734,4.447266 l 0.701172,0.912109 C 24.022533,22.076139 25,20.151768 25,18.001953 25,17.186712 24.855638,16.405882 24.597656,15.677734 Z m -9.83789,7.189454 -0.972657,0.714843 C 14.960232,24.470446 16.418687,25 18,25 c 0.932852,0 1.82232,-0.18294 2.636719,-0.515625 l -0.800781,-0.9375 C 19.258663,23.738715 18.643043,23.845703 18,23.845703 c -1.200048,0 -2.313854,-0.360992 -3.240234,-0.978515 z"
    />
    <path
      id="path2555-3"
      style="
        color: #000000;
        fill: #000000;
        fill-rule: evenodd;
        stroke-width: 0.342239;
        stroke-dashoffset: 16.512;
      "
      d="m 18,0 c -1.7427,0 -3.425756,0.25523227 -5.019531,0.71875 l 0.36914,0.4140625 C 14.83055,0.72360681 16.388303,0.5 18,0.5 c 5.194899,0 9.857993,2.263081 13.0625,5.8554688 l 0.357422,-0.34375 C 28.123319,2.3240695 23.333411,0 18,0 Z M 8.8320312,2.53125 C 5.0349643,4.7874868 2.1404839,8.3951228 0.81054688,12.691406 L 1.2734375,12.869141 C 2.5595341,8.6824699 5.3748728,5.1678867 9.0683594,2.96875 Z M 33.966797,9.7109375 33.646484,10.169922 C 34.828429,12.526264 35.5,15.183231 35.5,18 c 0,0.736503 -0.04832,1.461423 -0.136719,2.173828 l 0.492188,0.07813 C 35.94793,19.513886 36,18.763201 36,18 36,15.008259 35.259945,12.193096 33.966797,9.7109375 Z M 0.11523438,20.013672 C 0.59353255,24.297066 2.575195,28.126 5.5214844,30.962891 l 0.359375,-0.34375 C 3.0215871,27.872492 1.0955204,24.164812 0.61914062,20.013672 Z M 33.9375,25.189453 c -1.133997,2.511043 -2.829993,4.712381 -4.947266,6.423828 l 0.253907,0.429688 c 2.17722,-1.745792 3.925966,-3.992682 5.103515,-6.556641 z M 9.4570312,33.265625 9.0742188,33.621094 C 11.705986,35.129816 14.749885,36 18,36 c 2.867972,0 5.569816,-0.688669 7.976562,-1.882812 l -0.238281,-0.4375 C 23.403022,34.834138 20.782326,35.5 18,35.5 c -3.105181,0 -6.015569,-0.816717 -8.5429688,-2.234375 z"
    />
    <path
      id="path5702"
      style="
        color: #000000;
        fill: #000000;
        fill-rule: evenodd;
        stroke-width: 0.342239;
        stroke-dashoffset: 16.512;
      "
      d="m 18,6 c -1.336804,0 -2.618841,0.2284125 -3.820312,0.6328125 l 0.609374,0.8457031 C 15.804953,7.1694975 16.882286,7 18,7 c 3.56964,0 6.733537,1.6981026 8.742188,4.328125 l 0.90039,-0.457031 C 25.455534,7.9190344 21.951479,6 18,6 Z M 10.490234,8.6621094 C 8.4554495,10.30087 6.9647936,12.586238 6.3359375,15.207031 l 0.8945313,0.554688 C 7.7570304,13.219585 9.1629093,11.00541 11.113281,9.4375 Z m 18.919922,5.6249996 -0.835937,0.677735 C 28.849857,15.928902 29,16.946686 29,18 c 0,3.509082 -1.639335,6.629316 -4.193359,8.642578 l 0.894531,0.554688 C 28.327663,24.995018 30,21.691255 30,18 30,16.703914 29.791286,15.456935 29.410156,14.287109 Z M 6.0058594,18.242188 c 0.065738,3.295305 1.462923,6.265016 3.6757812,8.396484 L 10.458984,26.009766 C 8.5297787,24.192976 7.2612338,21.685972 7.0390625,18.880859 Z m 6.8222656,9.46875 -0.833984,0.673828 C 13.761458,29.410069 15.812052,30 18,30 c 1.837167,0 3.577301,-0.414536 5.134766,-1.154297 L 22.105469,28.207031 C 20.83709,28.716809 19.452045,29 18,29 16.129266,29 14.369525,28.532601 12.828125,27.710938 Z"
    />
  </g>
  <defs>
    <linearGradient
      id="gradient"
      x1="16"
      x2="16"
      y1="32"
      y2="24"
      gradientUnits="userSpaceOnUse"
    >
      <stop stop-color="#000" />
      <stop offset="1" stop-color="#000" stop-opacity="0" />
    </linearGradient>
  </defs>
  <style>
    @media (prefers-color-scheme: dark) {
      :root {
        filter: invert(100%);
      }
    }
  </style>
</svg>
